# xmcd
#
# Track frame offsets: 
#        150
#        17534
#        35473
#        45758
#        60074
#        73857
#        92585
#        104954
#        114856
#        126852
#        135762
#        148915
#
# Disc length: 2237 seconds
#
# Revision: 0
# Processed by: cddbd v1.5.2PL0 Copyright (c) Steve Scherf et al.
# Submitted via: ExactAudioCopy v0.99pb5
#
DISCID=9708bb0c
DTITLE=We Happy Few - Empty boxes (unplugged)
DYEAR=2010
DGENRE=Country
TTITLE0=Cocaine Killed My Baby
TTITLE1=Low Down Track
TTITLE2=The Smallest Yield
TTITLE3=Railroad Joe
TTITLE4=Can't Be Satisfied
TTITLE5=John Henry
TTITLE6=I'm Satisfied
TTITLE7=Little Queen Of Spades
TTITLE8=Many Thanks Mr J
TTITLE9=Turtles
TTITLE10=Pay Day
TTITLE11=Berkley Square
EXTD=
EXTT0=
EXTT1=
EXTT2=
EXTT3=
EXTT4=
EXTT5=
EXTT6=
EXTT7=
EXTT8=
EXTT9=
EXTT10=
EXTT11=
PLAYORDER=
